<svg preserveAspectRatio="none" overflow="visible" style="display: block;" width="20" height="20" viewBox="0 0 20 20" fill="none" xmlns="http://www.w3.org/2000/svg">
<g id="solar:fire-bold">
<path id="Vector" d="M10.6933 18.1675C13.2983 17.6458 16.6667 15.7717 16.6667 10.9258C16.6667 6.51667 13.4392 3.58 11.1183 2.23083C10.6025 1.93083 10 2.325 10 2.92083V4.44417C10 5.64583 9.495 7.83917 8.09167 8.75167C7.375 9.2175 6.6 8.52 6.51333 7.67L6.44167 6.97167C6.35833 6.16 5.53167 5.6675 4.88333 6.1625C3.7175 7.05 2.5 8.60833 2.5 10.925C2.5 16.8508 6.9075 18.3333 9.11083 18.3333C9.23972 18.3333 9.37417 18.3292 9.51417 18.3208C8.42583 18.2283 6.66667 17.5533 6.66667 15.37C6.66667 13.6617 7.9125 12.5075 8.85917 11.945C9.11417 11.795 9.41167 11.9908 9.41167 12.2867V12.7783C9.41167 13.1533 9.5575 13.7408 9.90333 14.1425C10.295 14.5975 10.8692 14.1208 10.915 13.5225C10.93 13.3342 11.12 13.2142 11.2833 13.3092C11.8175 13.6217 12.5 14.2883 12.5 15.37C12.5 17.0767 11.5592 17.8617 10.6933 18.1675Z" fill="#FF0000"/>
</g>
</svg>
